<svg xmlns="http://www.w3.org/2000/svg" xmlns:xlink="http://www.w3.org/1999/xlink" viewBox="0 0 500 500" width="500" height="500" preserveAspectRatio="xMidYMid meet" style="width: 100%; height: 100%; transform: translate3d(0px, 0px, 0px); content-visibility: visible;"><defs><clipPath id="__lottie_element_59"><rect width="500" height="500" x="0" y="0"/></clipPath><clipPath id="__lottie_element_61"><path d="M0,0 L500,0 L500,500 L0,500z"/></clipPath></defs><g clip-path="url(#__lottie_element_59)"><g clip-path="url(#__lottie_element_61)" transform="matrix(1,0,0,1,0,0)" opacity="1" style="display: block;"><g transform="matrix(2.6870057582855225,-2.6870057582855225,2.6870057582855225,2.6870057582855225,288.0011901855469,196.36619567871094)" opacity="1" style="display: block;"><g opacity="1" transform="matrix(1,0,0,1,0,0)"><path stroke-linecap="round" stroke-linejoin="round" fill-opacity="0" class="primary" stroke="rgb(18,19,49)" stroke-opacity="1" stroke-width="2.2" d="M0 0"/></g></g><g transform="matrix(3.799999952316284,0,0,3.799999952316284,277.5486145019531,218.59860229492188)" opacity="1" style="display: block;"><g opacity="1" transform="matrix(1,0,0,1,0,0)"><path stroke-linecap="round" stroke-linejoin="round" fill-opacity="0" class="primary" stroke="rgb(18,19,49)" stroke-opacity="1" stroke-width="2.2" d="M0 0"/></g></g><g transform="matrix(2.6870057582855225,2.6870057582855225,-2.6870057582855225,2.6870057582855225,243.03683471679688,226.92819213867188)" opacity="1" style="display: block;"><g opacity="1" transform="matrix(1,0,0,1,0,0)"><path stroke-linecap="round" stroke-linejoin="round" fill-opacity="0" class="primary" stroke="rgb(18,19,49)" stroke-opacity="1" stroke-width="2.2" d="M0 0"/></g></g><g transform="matrix(0,3.799999952316284,-3.799999952316284,0,212.743408203125,212.214599609375)" opacity="1" style="display: block;"><g opacity="1" transform="matrix(1,0,0,1,0,0)"><path stroke-linecap="round" stroke-linejoin="round" fill-opacity="0" class="primary" stroke="rgb(18,19,49)" stroke-opacity="1" stroke-width="2.2" d="M0 0"/></g></g><g transform="matrix(-2.6870057582855225,2.6870057582855225,-2.6870057582855225,-2.6870057582855225,204.413818359375,173.90283203125)" opacity="1" style="display: block;"><g opacity="1" transform="matrix(1,0,0,1,0,0)"><path stroke-linecap="round" stroke-linejoin="round" fill-opacity="0" class="primary" stroke="rgb(18,19,49)" stroke-opacity="1" stroke-width="2.2" d="M0 0"/></g></g><g transform="matrix(-3.799999952316284,0,0,-3.799999952316284,222.9274139404297,143.60940551757812)" opacity="1" style="display: block;"><g opacity="1" transform="matrix(1,0,0,1,0,0)"><path stroke-linecap="round" stroke-linejoin="round" fill-opacity="0" class="primary" stroke="rgb(18,19,49)" stroke-opacity="1" stroke-width="2.2" d="M0 0"/></g></g><g transform="matrix(-2.6870057582855225,-2.6870057582855225,2.6870057582855225,-2.6870057582855225,265.5002136230469,143.3408203125)" opacity="1" style="display: block;"><g opacity="1" transform="matrix(1,0,0,1,0,0)"><path stroke-linecap="round" stroke-linejoin="round" fill-opacity="0" class="primary" stroke="rgb(18,19,49)" stroke-opacity="1" stroke-width="2.2" d="M0 0"/></g></g><g transform="matrix(0.9999870657920837,0,0,0.9999870657920837,250.7441864013672,387.9991455078125)" opacity="1" style="display: block;"><g opacity="1" transform="matrix(1,0,0,1,0,0)"><path class="tertiary" fill="rgb(132,132,132)" fill-opacity="1" d=" M-33.23500061035156,-19 C-33.23500061035156,-19 -4.364999771118164,-19 -4.364999771118164,-19 C-4.364999771118164,-19 33.23500061035156,-19 33.23500061035156,-19 C33.23500061035156,-19 33.23500061035156,-9.140000343322754 33.23500061035156,-9.140000343322754 C33.23500061035156,-1.6770000457763672 30.270000457763672,5.480999946594238 24.993000030517578,10.758000373840332 C19.715999603271484,16.03499984741211 12.557999610900879,19 5.09499979019165,19 C5.09499979019165,19 -5.085000038146973,19 -5.085000038146973,19 C-8.781000137329102,19.000999450683594 -12.442000389099121,18.274999618530273 -15.857000350952148,16.861000061035156 C-19.27199935913086,15.446999549865723 -22.375,13.375 -24.98900032043457,10.76200008392334 C-27.60300064086914,8.14900016784668 -29.677000045776367,5.046000003814697 -31.091999053955078,1.63100004196167 C-32.50699996948242,-1.784000039100647 -33.23500061035156,-5.443999767303467 -33.23500061035156,-9.140000343322754 C-33.23500061035156,-9.140000343322754 -33.23500061035156,-19 -33.23500061035156,-19z"/></g></g><g transform="matrix(0.9999870657920837,0,0,0.9999870657920837,234.1294403076172,387.9991455078125)" opacity="0.5" style="mix-blend-mode: multiply; display: block;"><g opacity="1" transform="matrix(1,0,0,1,0,0)"><path class="tertiary" fill="rgb(132,132,132)" fill-opacity="0.5" d=" M-16.6200008392334,-19 C-16.6200008392334,-19 16.6200008392334,-19 16.6200008392334,-19 C16.6200008392334,-19 16.6200008392334,19 16.6200008392334,19 C16.6200008392334,19 11.529999732971191,19 11.529999732971191,19 C7.834000110626221,19.000999450683594 4.172999858856201,18.274999618530273 0.7580000162124634,16.861000061035156 C-2.6570000648498535,15.446999549865723 -5.760000228881836,13.375 -8.37399959564209,10.76200008392334 C-10.98799991607666,8.14900016784668 -13.062000274658203,5.046000003814697 -14.47700023651123,1.63100004196167 C-15.892000198364258,-1.784000039100647 -16.6200008392334,-5.443999767303467 -16.6200008392334,-9.140000343322754 C-16.6200008392334,-9.140000343322754 -16.6200008392334,-19 -16.6200008392334,-19z"/></g></g><g transform="matrix(4.369999885559082,0,0,4.369999885559082,255.35890197753906,241.0054473876953)" opacity="1" style="display: block;"><g opacity="1" transform="matrix(1,0,0,1,0,0)"><path stroke-linecap="round" stroke-linejoin="round" fill-opacity="0" class="primary" stroke="rgb(18,19,49)" stroke-opacity="1" stroke-width="1.8" d=" M-2.069999933242798,29.312000274658203 C-2.069999933242798,29.312000274658203 -8.675999641418457,29.312000274658203 -8.675999641418457,29.312000274658203 C-8.675999641418457,29.312000274658203 -8.675999641418457,31.569000244140625 -8.675999641418457,31.569000244140625 C-8.675999641418457,35.125999450683594 -5.791999816894531,38.00899887084961 -2.234999895095825,38.00899887084961 C-2.234999895095825,38.00899887084961 0.0949999988079071,38.00899887084961 0.0949999988079071,38.00899887084961 C3.6519999504089355,38.00899887084961 6.534999847412109,35.125999450683594 6.534999847412109,31.569000244140625 C6.534999847412109,31.569000244140625 6.534999847412109,29.312000274658203 6.534999847412109,29.312000274658203 C6.534999847412109,29.312000274658203 -2.069999933242798,29.312000274658203 -2.069999933242798,29.312000274658203z"/></g></g><g transform="matrix(0.9999870657920837,0,0,0.9999870657920837,251.01512145996094,216.3673858642578)" opacity="1" style="display: block;"><g opacity="1" transform="matrix(1,0,0,1,0,0)"><path class="secondary" fill="rgb(44,44,56)" fill-opacity="1" d=" M27.405000686645508,127.37000274658203 C27.405000686645508,127.37000274658203 -0.014999999664723873,127.37000274658203 -0.014999999664723873,127.37000274658203 C-0.014999999664723873,127.37000274658203 -27.424999237060547,127.33999633789062 -27.424999237060547,127.33999633789062 C-29.225000381469727,127.33999633789062 -31.006999969482422,126.98500061035156 -32.66999816894531,126.2959976196289 C-34.33300018310547,125.60700225830078 -35.84400177001953,124.59700012207031 -37.11600112915039,123.3239974975586 C-38.38800048828125,122.0510025024414 -39.39699935913086,120.53900146484375 -40.084999084472656,118.8759994506836 C-40.77299880981445,117.21299743652344 -41.125999450683594,115.43000030517578 -41.125,113.62999725341797 C-41.125,113.62999725341797 -41.125,99.33999633789062 -41.125,99.33999633789062 C-41.124000549316406,95.62899780273438 -41.92900085449219,91.96199798583984 -43.483001708984375,88.59200286865234 C-45.0369987487793,85.22200012207031 -47.303001403808594,82.22899627685547 -50.125,79.81999969482422 C-67.78500366210938,64.7300033569336 -105.375,26.610000610351562 -105.375,-24.18000030517578 C-105.375,-83.11000061035156 -74.34500122070312,-127.37000274658203 -0.014999999664723873,-127.37000274658203 C74.31500244140625,-127.37000274658203 105.34500122070312,-83.11000061035156 105.375,-24.190000534057617 C105.375,26.579999923706055 67.78500366210938,64.69999694824219 50.1150016784668,79.80999755859375 C47.29199981689453,82.21900177001953 45.0260009765625,85.21199798583984 43.47200012207031,88.58200073242188 C41.917999267578125,91.9520034790039 41.11399841308594,95.61900329589844 41.1150016784668,99.33000183105469 C41.1150016784668,99.33000183105469 41.1150016784668,113.62999725341797 41.1150016784668,113.62999725341797 C41.11899948120117,115.43299865722656 40.766998291015625,117.21900177001953 40.08000183105469,118.88600158691406 C39.393001556396484,120.5530014038086 38.382999420166016,122.06800079345703 37.11000061035156,123.34400177001953 C35.83700180053711,124.62000274658203 34.32400131225586,125.63300323486328 32.659000396728516,126.3239974975586 C30.993999481201172,127.01499938964844 29.20800018310547,127.37000274658203 27.405000686645508,127.37000274658203z"/></g></g><g transform="matrix(0.9999870657920837,0,0,0.9999870657920837,207.17091369628906,216.35427856445312)" opacity="0.5" style="mix-blend-mode: multiply; display: block;"><g opacity="1" transform="matrix(1,0,0,1,0,0)"><path class="secondary" fill="rgb(44,44,56)" fill-opacity="0.5" d=" M29.1299991607666,79.8550033569336 C34.83000183105469,84.73500061035156 43.83000183105469,91.86499786376953 43.83000183105469,99.375 C43.83000183105469,99.375 43.83000183105469,127.3550033569336 43.83000183105469,127.3550033569336 C43.83000183105469,127.3550033569336 16.420000076293945,127.3550033569336 16.420000076293945,127.3550033569336 C14.619999885559082,127.3550033569336 12.838000297546387,127 11.175000190734863,126.31099700927734 C9.51200008392334,125.62200164794922 8.00100040435791,124.61199951171875 6.729000091552734,123.33899688720703 C5.456999778747559,122.06600189208984 4.447999954223633,120.55400085449219 3.759999990463257,118.89099884033203 C3.072000026702881,117.22799682617188 2.7190001010894775,115.44499969482422 2.7200000286102295,113.6449966430664 C2.7200000286102295,113.6449966430664 2.7200000286102295,99.3550033569336 2.7200000286102295,99.3550033569336 C2.7209999561309814,95.64399719238281 1.9160000085830688,91.97699737548828 0.3619999885559082,88.60700225830078 C-1.1920000314712524,85.23699951171875 -3.4579999446868896,82.24400329589844 -6.28000020980835,79.83499908447266 C-23.940000534057617,64.74500274658203 -61.529998779296875,26.625 -61.529998779296875,-24.165000915527344 C-61.529998779296875,-83.09500122070312 -30.5,-127.3550033569336 43.83000183105469,-127.3550033569336 C49.742000579833984,-127.36000061035156 55.6510009765625,-127.05000305175781 61.529998779296875,-126.42500305175781 C-0.05000000074505806,-119.84500122070312 -26.1200008392334,-78.1449966430664 -26.1200008392334,-24.145000457763672 C-26.1200008392334,26.625 11.470000267028809,64.74500274658203 29.1299991607666,79.8550033569336z"/></g></g><g transform="matrix(4.369999885559082,0,0,4.369999885559082,255.35890197753906,241.0054473876953)" opacity="1" style="display: block;"><g opacity="1" transform="matrix(1,0,0,1,0,0)"><path stroke-linecap="round" stroke-linejoin="round" fill-opacity="0" class="primary" stroke="rgb(18,19,49)" stroke-opacity="1" stroke-width="1.8" d=" M-1.0700000524520874,23.531999588012695 C-1.0700000524520874,23.531999588012695 5.204999923706055,23.531999588012695 5.204999923706055,23.531999588012695 C6.938000202178955,23.531999588012695 8.343000411987305,22.128000259399414 8.343000411987305,20.395000457763672 C8.343000411987305,20.395000457763672 8.343000411987305,17.12299919128418 8.343000411987305,17.12299919128418 C8.343000411987305,15.404000282287598 9.08899974822998,13.772000312805176 10.395000457763672,12.654999732971191 C14.437000274658203,9.197999954223633 23.040000915527344,0.47600001096725464 23.040000915527344,-11.147000312805176 C23.040000915527344,-24.632999420166016 15.939000129699707,-34.76100158691406 -1.0700000524520874,-34.76100158691406 C-18.07900047302246,-34.76100158691406 -25.18000030517578,-24.632999420166016 -25.18000030517578,-11.147000312805176 C-25.18000030517578,0.47600001096725464 -16.577999114990234,9.197999954223633 -12.53600025177002,12.654999732971191 C-11.229999542236328,13.772000312805176 -10.482999801635742,15.404000282287598 -10.482999801635742,17.12299919128418 C-10.482999801635742,17.12299919128418 -10.482999801635742,20.395000457763672 -10.482999801635742,20.395000457763672 C-10.482999801635742,22.128000259399414 -9.079000473022461,23.531999588012695 -7.3460001945495605,23.531999588012695 C-7.3460001945495605,23.531999588012695 -1.0700000524520874,23.531999588012695 -1.0700000524520874,23.531999588012695z"/></g></g><g transform="matrix(4.369399547576904,-0.07243368774652481,0.07243368774652481,4.369399547576904,253.6898193359375,240.9417724609375)" opacity="1" style="display: block;"><g opacity="1" transform="matrix(1,0,0,1,0,0)"><path stroke-linecap="round" stroke-linejoin="round" fill-opacity="0" class="quaternary" stroke="rgb(255,255,255)" stroke-opacity="1" stroke-width="1.8" d=" M3.553999900817871,11.586999893188477 C3.553999900817871,11.586999893188477 7.956999778747559,-9.866999626159668 7.956999778747559,-9.866999626159668 C7.956999778747559,-9.866999626159668 3.553999900817871,-3.8259999752044678 3.553999900817871,-3.8259999752044678 C3.553999900817871,-3.8259999752044678 -1.0700000524520874,-9.229000091552734 -1.0700000524520874,-9.229000091552734 C-1.0700000524520874,-9.229000091552734 -5.693999767303467,-3.8259999752044678 -5.693999767303467,-3.8259999752044678 C-5.693999767303467,-3.8259999752044678 -10.097999572753906,-9.866999626159668 -10.097999572753906,-9.866999626159668 C-10.097999572753906,-9.866999626159668 -5.693999767303467,11.586999893188477 -5.693999767303467,11.586999893188477"/></g></g></g></g></svg>